<?xml version="1.0" encoding="UTF-8"?>
<svg width="90px" height="56px" viewBox="0 0 90 56" version="1.1" xmlns="http://www.w3.org/2000/svg" xmlns:xlink="http://www.w3.org/1999/xlink">
    <!-- Generator: Sketch 52.1 (67048) - http://www.bohemiancoding.com/sketch -->
    <title>logo</title>
    <desc>Created with Sketch.</desc>
    <g id="Page-1" stroke="none" stroke-width="1" fill="none" fill-rule="evenodd">
        <g id="logo" transform="translate(-1.000000, 0.000000)">
            <path d="M54.4,3 C54.4,3 54.1,5 56,5.2 C57.9,5.4 58,1.8 55.1,1.3 C52.6,0.8 51.2,2.6 50.6,4 C50,5.4 49.5,9.8 44.4,11.5 C39.3,13.2 34.6,10.4 35,6.1 C35.4,1.8 39.9,2 41.4,3.6 C42.9,5.2 43.3,9.4 37.6,8.7 C37.6,8.7 37.1,8.2 36.9,7.3 C36.9,7.3 39.7,7.5 40.4,6.6 C41.1,5.7 40.9,4.1 38.9,3.9 C36.9,3.8 36.4,5.7 36.5,6.8 C36.6,8 37.3,9.6 40.4,10.3 C43.5,11 47.2,9.1 48.5,6.2 C49.8,3.3 50.7,-0.1 54.8,0.3 C59.1,0.8 58.5,5.4 56.5,5.7 C54.6,6 53.8,4.6 54.4,3 Z" id="Path" fill="#DFE1E8"></path>
            <path d="M32.9,23.7 C32.9,23.7 34.3,24.6 37.5,24.2 C37.5,24.2 39.2,25.6 41.3,25.5 C41.3,25.5 41.3,28.2 38.9,29 C39,28.8 34.9,28.5 32.9,23.7 Z" id="Path" fill="#DFE1E8"></path>
            <path d="M4.6,11.2 C4.6,11.2 2,10.7 1.8,12.6 C1.6,14.8 5.3,15.7 9.3,12.6 C12.6,10.1 14.7,9 17.5,8.9 C20,8.8 22,9.6 23.5,11.3 C25.8,14 25.6,19.1 20.4,21.9 C20.4,21.9 20.3,21.2 20,20.5 C20,20.5 25.5,16.7 22.1,12.3 C19.8,9.3 14.3,10.4 11,12.9 C6.5,16.3 1.3,16.4 1,13 C0.9,11.7 1.8,11 2.5,10.8 C4.1,10.6 4.6,11.2 4.6,11.2 Z" id="Path" fill="#DFE1E8"></path>
            <path d="M19.9,29.2 C19.9,29.2 19.6,27.2 20,24.7 C20.4,22.6 20.1,19.4 17.3,18.9 C14.5,18.3 12.8,20.6 13.5,22.2 C14.4,24.1 17.6,23.4 18.3,23 C18.3,23 18.3,22.1 18.1,21.6 C18.1,21.6 14.9,22.7 15.1,21.1 C15.3,19.9 19.6,19.5 18.4,24.3 C18,25.9 17.8,27.4 18,28.1 C18,28.1 18.9,28.8 19.9,29.2 Z" id="Path" fill="#DFE1E8"></path>
            <path d="M73.1,47.1 C73.1,47.1 72.4,45.6 74.2,45.3 C76,45 78.3,46.5 80.7,46 C83.1,45.6 83.5,43.2 82.3,41.7 C81.1,40.2 78.1,40.7 75.2,41.4 C71.7,42.2 66.4,41.9 65.5,39.9 C65.5,39.9 64.7,39.9 63.6,39.7 C63.6,39.7 63.6,42.4 68.1,43 C72.5,43.6 75.1,42.6 77.2,42.2 C79.2,41.8 81.4,41.5 81.7,43.2 C81.9,44.5 80.2,45.3 78.6,44.9 C75.6,44.1 73.3,43.8 72.8,45.4 C72.6,46 72.6,46.5 73.1,47.1 Z" id="Path" fill="#DFE1E8"></path>
            <path d="M80.5,29.9 C80.5,29.9 80.2,31.1 81.1,31.7 C82,32.3 83.6,31.7 83.2,30 C82.8,28.4 80.1,28.6 78.4,29 C76.6,29.3 71.7,31 68.8,30.4 C65.9,29.9 64.3,27.9 65.3,25.8 C66.5,23.3 71.3,24.3 76.7,25.8 C81.5,27.2 81.5,24.9 78.9,22.9 C76.3,20.9 71.2,20.8 68.8,24 C68.8,24 66.2,23.8 65.1,25.7 C64.2,27.3 65.3,28.8 65.3,28.8 C65.3,28.8 63.2,32.1 59.7,33.3 C59.7,33.3 59.3,32.8 57.6,30.4 C57.6,30.4 59.6,29.8 61.9,27.7 C64.2,25.6 67,21 71.2,20 C75.4,18.9 79.4,20.8 81.1,22.7 C82.8,24.6 83.1,26.8 82.2,27.5 C82.2,27.5 80.8,26.8 76.6,27.7 C76.6,27.7 75.8,27.8 73,27 C70.1,26.2 67.9,25.7 67.5,26.9 C66.9,28.5 69.7,29.1 71.7,28.9 C73.7,28.7 80.4,26.5 82.9,28 C85.4,29.5 84.8,32.6 82.4,32.8 C79.9,32.8 79.9,30.7 80.5,29.9 Z" id="Path" fill="#DFE1E8"></path>
            <path d="M58.9,42.6 C58.9,42.6 58.9,41.2 58.1,40.2 C57.7,39.7 57,39.2 56.1,39 C53.5,38.6 52.3,40.6 52.3,40.6 C52.3,40.6 52.1,40.1 51.8,39.7 C51.8,39.7 54.4,36.9 57.6,38.9 C59.4,40.1 58.9,42.6 58.9,42.6 Z" id="Path" fill="#DFE1E8"></path>
            <path d="M50.8,41.4 C50.8,41.4 50.4,42.2 49.5,42.7 C48.5,43.2 46.8,43.1 46.7,41.6 C46.7,39.6 51.4,39.2 51.3,42.6 C51.2,45.8 47.6,46.3 45.1,46.1 C40.8,45.7 37,44 35.1,42.7 C35.1,42.7 34.1,43.4 33.7,44.8 C33.7,44.8 38,47.1 42.7,47.7 C48.6,48.4 52.4,46.9 52.6,42.7 C52.8,38.5 48.5,38.2 46.7,39.4 C45,40.6 45.1,43.6 47.6,44 C50.1,44.5 51.1,42.6 51.1,42.6 C51.1,42.6 51,41.9 50.8,41.4 Z" id="Path" fill="#DFE1E8"></path>
            <path d="M31.3,40.8 C31.3,40.8 30.5,41.5 29.9,43 C29.9,43 26.8,41.5 25,41.5 C23.2,41.5 21.6,42.1 21.7,44 C21.8,46.2 25.3,47.6 29.5,46.6 C29.5,46.6 29.5,47.8 30,48.9 C30,48.9 21.8,50.9 19.3,46 C16.6,40.9 22.5,36.1 31.3,40.8 Z" id="Path" fill="#DFE1E8"></path>
            <path d="M33.4,45.6 C33.4,45.6 33.3,46.9 33.8,47.9 C33.8,47.9 35.6,47.3 36.8,46.6 C36.8,46.6 35.4,46.2 34,45.4 L33.4,45.6 Z" id="Path" fill="#DFE1E8"></path>
            <path d="M41.2,37.2 C41.2,37.2 40.9,38.2 39.1,40.6 C39.1,40.6 33.4,41.3 33.1,45.6 C32.8,50.2 37.5,52.3 42.1,51.3 C46.7,50.3 50.7,48.1 54.4,46.6 C58.1,45.1 60,44.1 63.7,44.6 C67.5,45 69.4,50.1 66,53.7 C62.6,57.3 57.4,55.9 57.6,52.7 C57.9,49.5 62.3,48.5 65.5,49.5 C65.5,49.5 65.5,50.3 65.2,50.9 C65.2,50.9 62.1,50.3 60.5,51.3 C58.9,52.2 59.2,54.7 62.4,53.9 C66,53 66.6,48.5 64.7,47.3 C62.8,46.1 60,46.1 53.1,49.8 C46.2,53.5 35.5,57.7 31.2,50.7 C27.3,44.2 31.7,37.6 41.2,37.2 Z" id="Path" fill="#DFE1E8"></path>
            <path d="M68,50.2 C68,50.2 67.9,50.9 67.7,51.5 C67.7,51.5 87.6,57 90.9,45.9 C91,45.8 87.6,55.3 68,50.2 Z" id="Path" fill="#DFE1E8"></path>
            <path d="M72.7,30.6 C72.7,30.6 73.3,30.5 74.1,30.3 C74.1,30.3 74.3,35.1 79.4,34.1 C79.4,34.1 77.9,34.9 76.2,34.6 C74.9,34.5 73,33.3 72.7,30.6 Z" id="Path" fill="#DFE1E8"></path>
            <path d="M72.6,28.4 C72.6,28.4 72.7,27.9 73,27.3 L74.6,27.7 L74.5,28 C74.5,28 73.3,28.2 72.6,28.4 Z" id="Path" fill="#DFE1E8"></path>
            <path d="M74.3,25 C74.3,25 75.1,25.2 76,25.4 C76,25.4 77,24.3 78.6,23 C78.6,23 77.8,22.4 77.1,22.2 C77,22.3 75.3,23.5 74.3,25 Z" id="Path" fill="#DFE1E8"></path>
            <path d="M78.5,20.5 C78.5,20.5 79.3,20.8 80,21.4 C80,21.4 83.4,16.6 80.4,12.1 C77.3,7.6 68.6,7.1 66.7,12.9 C65.1,17.8 70.6,20.7 74.1,17.4 C76.6,15.1 75.1,11.2 75.1,11.2 C75.1,11.2 74,10.9 72.6,11.2 C72.6,11.2 73.9,13.8 72.6,15.4 C70.6,17.9 67.6,15.4 69.5,12.6 C71.3,10 76.3,10.1 78.3,12.5 C80.1,14.6 80.5,17.3 78.5,20.5 Z" id="Path" fill="#DFE1E8"></path>
            <path d="M69.4,9.1 C69.4,9.1 62.3,7.4 62.4,15.1 C62.4,15.1 61,13.7 59.2,12.8 C59.2,12.8 59.3,8.9 63.7,7 C67.6,5.4 72.3,7.4 73,8.3 C73,8.3 71.3,8.2 69.4,9.1 Z" id="Path" fill="#DFE1E8"></path>
            <path d="M29.9,17.4 C29.9,17.4 31.1,17.8 32,18.9 C32,18.9 32,18.5 32.1,18.1 C32.1,18.1 31.2,17.5 29.9,17.4 Z" id="Path" fill="#DFE1E8"></path>
            <polygon id="Path" fill="#DFE1E8" points="31.9 23.3 32.1 23.9 32.6 23.5"></polygon>
            <path d="M27.8,20 C27.8,20 25.2,19.6 25.2,22 C25.2,24.5 28.5,25.2 30,24.7 C30,24.7 30,24.1 29.7,23.6 C29.7,23.6 27.5,23.9 26.8,22.4 C26.1,21 28.6,20.7 29.7,22.8 C30.9,25.2 29.8,27.3 29.3,27.9 L31.2,28.5 C31.2,28.5 32.7,26.2 31.4,23.1 C31.5,23.1 29.6,22.4 27.8,20 Z" id="Path" fill="#DFE1E8"></path>
            <path d="M52.6,26.8 C52.6,26.8 55.9,28 58,25.5 C58,25.5 61.4,24.8 62.4,23.7 C62.4,23.7 62.3,26.1 61.3,27.7 C61.3,27.7 59.8,29.3 57.2,30.2 C57.2,30.2 55.2,28 52.4,27.4 C52.5,27.3 52.4,27 52.6,26.8 Z" id="Path" fill="#DFE1E8"></path>
            <path d="M49.5,34.9 L50.6,34 C50.6,34 52.7,35.4 55.8,34.8 C55.8,34.8 57.1,37.7 51,39 C51,39 49.4,38.2 47.8,38.6 C46.5,38.9 45.9,39.7 45.9,39.7 L45,39.8 C45,39.8 46.6,37.9 48.1,36.4 C48.1,36.4 50.7,36.2 50.6,35.3 C50.6,34.8 49.5,34.9 49.5,34.9 Z" id="Path" fill="#DFE1E8"></path>
            <path d="M24.5,30 C24.5,30 19.8,30.7 17.2,27.7 C17.2,27.7 14.7,27.5 15,28.8 C15,28.8 14.1,27.2 17.6,27.4 C17.6,27.4 17.6,26.5 17.9,25.2 C17.9,25.2 14,25 14,27.9 C14,30.8 20.3,33.9 28.1,31.3 C28.2,31.2 26.4,30.5 24.5,30 Z" id="Path" fill="#DFE1E8"></path>
            <path d="M51.3,25.2 C50.7,25.4 50.2,25.2 50.2,25.2 C50.1,25.2 50,25.2 49.9,25.3 C49.9,25.4 49.9,25.5 50,25.6 C50,25.6 50.3,25.7 50.7,25.7 C50.9,25.7 51.2,25.7 51.4,25.6 C51.5,25.6 51.6,25.4 51.5,25.3 C51.6,25.2 51.4,25.2 51.3,25.2 Z" id="Path"></path>
            <path d="M50.8,27.2 C51,27.2 51.4,27 51.4,26.6 C51.2,26.7 51,26.7 50.8,26.7 C50.8,26.7 50.8,26.7 50.8,26.7 C50.8,26.7 50.7,26.8 50.6,26.8 C50.5,26.8 49.8,27.1 49.4,27.4 C48.7,27.9 48.6,28.5 48.7,29.2 C48.7,29.3 48.8,27.6 50.8,27.2 Z" id="Path"></path>
            <path d="M30.3,22.1 C32.6,23.8 36.9,24.6 40,23 C40.5,22.8 40.9,22.5 41.3,22.2 C41.3,22.1 41.3,22 41.3,21.9 C40.9,21.8 40.3,21.4 40.3,20.7 C40.3,20.4 40.4,20.1 40.6,19.9 C40.6,19.9 40.6,19.9 40.6,19.9 C40.7,19.7 41,19.6 41.2,19.5 C41.7,19.4 42.3,19.5 42.6,20 C42.8,19.9 42.9,19.9 43,19.9 C43.3,18.8 43.2,17.6 42.7,16.4 C41.6,13.5 36.5,12 33.6,15.2 C32.7,16.2 32,17.9 32.4,20.4 C32.4,20.4 33.9,21.4 35.9,21.4 C35.9,21.4 34.4,18.5 36.3,16.8 C38.3,15 41,16.3 40.8,18.7 C40.6,21.8 33.8,23.3 30.8,19.4 C26.6,14 30.8,9 35.2,9 C35.2,9 34.7,8.3 34.7,7.5 C34.7,7.5 29.2,7.7 27.4,12.4 C25.6,17.1 28,20.4 30.3,22.1 Z" id="Path" fill="#DFE1E8"></path>
            <path d="M70.7,33.7 C65.8,34 64,37.1 64,37.1 C64,37.1 64.5,37.4 65.7,37.6 C65.7,37.6 66.8,36.2 69.2,35.5 C71.2,34.9 72.6,35.3 72.8,35.9 C73.1,36.7 67.6,39.9 62.1,36.4 C60.9,35.7 59.3,33.4 58.7,32.5 C57.5,30.6 56.2,28.8 53.3,27.8 C51.2,27.1 49.8,27.8 49.3,28.2 C50.5,27 52.2,27.2 52.2,27.2 C52.2,27.2 51.4,25.9 55.4,25.4 C60.3,24.7 63.5,23.5 64,20.1 C64.5,16.7 59.6,11.6 53.2,11.5 C46.8,11.4 45.4,16.2 45.2,17.2 C45,18.2 44.4,18.1 44.2,18.4 C44,18.8 44.5,19.8 43,19.9 C41.7,20.1 41.6,21.3 41.6,21.7 C41.6,21.7 41.6,21.7 41.6,21.7 C41.6,22.1 41.7,22.5 41.7,23 C41.9,25 41.7,26.1 41.3,27.1 C39.5,31.1 31.7,28.9 27.7,27.3 C23.7,25.7 20.3,25.1 20.3,25.1 C20,26.8 20.2,28 20.2,28 C22.4,28.5 27.8,30.8 32,32.2 C36.2,33.5 39.1,32.5 39.1,32.5 C42.9,30.1 42.6,27.4 42.4,25.7 C42.2,24 42.8,23.9 42.8,23.9 C42.8,23.9 42.4,24.2 42.8,26.6 C43.1,28.8 42,34 33.3,34.5 C24.6,35 22,32.5 22,32.5 C22,32.5 20.6,32.7 18.4,32 C18.4,32 20.2,36.1 26.9,37.4 C33.6,38.7 42.3,36.6 44.8,33.9 C44.8,33.9 43.9,35.1 42.2,36 C42.2,36 40.8,40.3 36.9,43.3 C36.9,43.3 38.5,44.2 40,44.5 C40,44.5 41.8,43.2 44.1,40.4 C47.3,36.6 50.3,33.8 50.3,33.8 C50.3,33.8 49.4,33.3 48.3,32.8 C47.4,32.4 46.6,32.5 46.3,32.8 C47.5,31.7 49.6,33.2 51.6,34.1 C53.7,35.1 56.2,34.4 56.2,34.4 C56.2,34.4 54.5,31.6 52.7,31 C50.9,30.3 50.5,31.1 50.5,31.1 C50.5,31.1 50.7,30.2 52.6,30.6 C54.4,31 56,33.1 56.7,34.3 C58.9,37.7 62.1,40.4 68.1,39.7 C76.8,38.7 75.7,33.3 70.7,33.7 Z M49.4,27.5 C49.7,27.2 50.5,27 50.6,26.9 C50.7,26.9 50.7,26.8 50.8,26.8 C50,26.8 49.4,26.2 49.4,25.4 C49.4,24.6 50,24 50.8,24 C51.1,24 51.3,24.1 51.5,24.2 C52.1,23.2 53.2,23.4 53.2,23.4 C52.2,23.5 51.9,24.2 51.9,24.5 C52.1,24.7 52.2,25.1 52.2,25.4 C52.2,26 51.9,26.5 51.4,26.7 C51.4,27.1 51,27.2 50.8,27.3 C48.8,27.7 48.7,29.3 48.7,29.3 C48.7,29.2 48.8,29.2 48.8,29.1 L48.7,29.3 C48.6,28.6 48.7,28 49.4,27.5 Z" id="Shape" fill="#DFE1E8" fill-rule="nonzero"></path>
            <path d="M41.1,20.7 C41,20.7 41,20.7 41,20.6 C40.8,20.4 40.7,20.3 40.6,20.1 C40.5,20.2 40.5,20.4 40.5,20.6 C40.5,21 40.7,21.3 41,21.5 C41.1,21.6 41.2,21.6 41.3,21.6 C41.3,21.3 41.4,20.9 41.6,20.5 C41.8,20.2 42.1,20 42.3,19.9 C42,19.6 41.6,19.5 41.2,19.6 C41.1,19.6 40.9,19.7 40.8,19.8 C40.8,19.8 40.8,19.8 40.8,19.8 C40.8,19.8 41,20.1 41.2,20.3 C41.3,20.4 41.3,20.5 41.2,20.6 C41.2,20.7 41.2,20.7 41.1,20.7 Z" id="Path" fill="#DFE1E8"></path>
            <path d="M52,25.4 C52,24.7 51.5,24.2 50.8,24.2 C50.1,24.2 49.6,24.7 49.6,25.4 C49.6,26.1 50.1,26.6 50.8,26.6 C51.4,26.6 52,26 52,25.4 Z M51.5,25.6 C51.2,25.7 51,25.7 50.8,25.7 C50.4,25.7 50.1,25.6 50.1,25.6 C50,25.6 50,25.4 50,25.3 C50,25.2 50.2,25.2 50.3,25.2 C50.3,25.2 50.8,25.4 51.4,25.2 C51.5,25.2 51.6,25.2 51.7,25.3 C51.6,25.4 51.6,25.5 51.5,25.6 Z" id="Shape" fill="#DFE1E8" fill-rule="nonzero"></path>
        </g>
    </g>
</svg>